<?xml version="1.0" standalone="no"?>
<!DOCTYPE svg PUBLIC "-//W3C//DTD SVG 20010904//EN"
 "http://www.w3.org/TR/2001/REC-SVG-20010904/DTD/svg10.dtd">
<svg version="1.0" xmlns="http://www.w3.org/2000/svg"
 width="493.000000pt" height="699.000000pt" viewBox="0 0 493.000000 699.000000"
 preserveAspectRatio="xMidYMid meet">
<metadata>
Created by potrace 1.16, written by Peter Selinger 2001-2019
</metadata>
<g transform="translate(0.000000,699.000000) scale(0.100000,-0.100000)"
fill="#000000" stroke="none">
<path d="M60 6858 c0 -40 5 -80 10 -88 5 -8 10 -12 10 -7 0 11 40 -31 40 -43
0 -13 13 -13 27 1 14 14 43 5 42 -13 0 -9 -2 -9 -5 -2 -6 14 -54 -7 -74 -31
-7 -8 -18 -15 -25 -15 -16 0 -15 8 -21 -263 -6 -236 -6 -238 15 -244 12 -3 21
-10 21 -15 0 -6 6 -8 14 -5 8 3 32 1 53 -5 21 -6 81 -21 133 -33 52 -13 141
-35 198 -49 93 -25 104 -26 118 -12 15 16 34 22 84 29 14 2 41 11 62 20 53 24
111 35 133 26 30 -11 35 -10 35 6 0 19 44 20 62 2 7 -8 21 -12 32 -9 17 5 18
1 10 -54 -4 -32 -8 -77 -8 -99 -1 -37 1 -40 29 -45 66 -12 125 -33 125 -44 0
-7 -5 -17 -12 -24 -7 -7 -8 -12 -2 -12 16 0 35 -65 39 -133 5 -77 13 -136 21
-148 11 -18 34 -9 35 14 1 12 3 36 5 52 2 17 4 44 4 62 1 18 7 33 15 37 8 3
12 12 9 21 -4 8 -1 15 6 15 8 0 10 -29 5 -110 l-6 -110 38 6 c117 17 287 45
348 59 81 17 145 19 145 5 0 -5 7 -10 16 -10 15 0 15 -21 -2 -82 -3 -9 0 -19
6 -23 5 -3 10 -19 10 -34 0 -37 23 -92 49 -115 17 -16 26 -17 68 -8 26 6 64
13 83 16 19 2 67 11 105 19 39 8 84 14 102 12 18 -2 40 3 50 11 12 8 13 13 5
14 -13 0 -44 59 -37 70 2 3 22 4 44 2 29 -3 38 -8 34 -18 -3 -8 1 -16 9 -19
15 -6 17 -12 21 -59 l2 -24 48 24 c43 22 47 27 41 52 -7 31 -30 52 -57 52 -47
0 -53 13 -50 111 1 51 6 96 11 101 9 9 33 16 101 28 23 4 46 12 50 18 3 6 58
20 121 32 63 11 129 25 145 30 17 5 46 11 65 13 83 10 296 50 304 57 14 14 -2
44 -17 32 -15 -12 -151 -41 -309 -66 l-28 -5 0 105 c0 85 -3 104 -15 104 -11
0 -15 -21 -17 -107 l-3 -108 -120 -21 c-66 -12 -134 -25 -152 -29 -23 -5 -31
-4 -30 6 0 8 -1 96 -1 197 -2 169 -3 182 -20 182 -10 0 -36 9 -58 19 -21 11
-42 17 -45 15 -11 -6 -10 -154 0 -154 5 0 12 8 14 18 4 14 6 14 12 -5 9 -28
15 -29 43 -3 l22 21 0 -128 c0 -70 -3 -138 -6 -150 -7 -27 -24 -31 -24 -6 0
13 -3 12 -19 -5 -10 -12 -24 -22 -31 -22 -8 0 -22 -7 -32 -16 -16 -16 -18 -15
-26 6 l-9 23 -21 -23 c-26 -28 -25 -30 -56 110 -21 89 -21 102 -8 109 13 7 12
10 -6 15 -21 7 -29 26 -15 39 3 4 17 0 30 -8 21 -14 23 -14 23 0 0 8 -7 15
-15 15 -14 0 -35 29 -35 49 0 6 11 11 25 11 28 0 29 2 16 47 -7 25 -6 33 6 37
25 10 33 7 26 -11 -6 -14 -3 -14 25 3 35 20 37 37 6 42 -10 2 -28 7 -39 12
-105 47 -137 60 -144 60 -5 0 -41 14 -82 31 -41 18 -108 44 -149 59 -41 15
-106 40 -145 55 -38 15 -117 44 -175 65 -58 21 -150 57 -205 80 -55 23 -184
75 -287 116 -164 65 -254 99 -468 175 -61 22 -116 45 -142 59 -10 6 -106 10
-213 10 l-195 0 0 -72z m1001 -360 c2 -28 -3 -113 -7 -117 -2 -2 -10 2 -18 8
-11 9 -71 10 -71 1 0 -2 -34 -7 -82 -12 -29 -3 -10 -30 37 -50 52 -23 59 -38
13 -31 -22 3 -19 0 15 -16 49 -23 57 -46 12 -36 -39 8 -53 0 -40 -25 5 -10 7
-25 4 -33 -5 -13 -13 -13 -66 -1 -34 8 -70 12 -82 9 -12 -3 -15 -2 -8 1 8 4
-17 17 -55 29 -126 43 -124 42 -114 68 5 14 5 30 -1 40 -7 13 -4 22 14 37 93
77 92 76 141 74 26 -1 54 -7 62 -14 12 -10 16 -9 21 4 3 9 16 16 28 16 11 0
57 13 101 29 95 34 95 34 96 19z m776 -844 c-4 -4 -165 -34 -184 -34 -7 0 -10
6 -7 14 3 8 1 17 -5 21 -7 3 -11 -3 -12 -17 -1 -17 -3 -15 -11 12 -10 33 -6
169 6 219 3 13 15 34 26 46 11 12 20 26 20 33 0 6 9 16 20 22 15 8 19 17 15
31 -7 22 -2 24 23 8 21 -13 101 5 104 24 2 7 4 -75 5 -182 2 -107 2 -195 0
-197z m137 293 c-9 -55 -65 -241 -80 -267 -13 -22 -14 -12 -10 95 3 66 6 147
6 180 l2 60 17 -37 17 -36 18 41 c18 40 19 41 27 19 5 -13 7 -38 3 -55z"/>
<path d="M2172 6888 c3 -40 5 -43 63 -71 33 -17 110 -51 170 -77 61 -26 146
-64 190 -85 121 -56 123 -57 148 -41 12 8 99 36 192 62 252 69 274 74 302 63
35 -13 43 -11 43 11 0 11 4 20 9 20 6 0 6 -12 1 -29 -6 -21 -4 -33 5 -41 17
-14 26 -102 40 -399 4 -83 11 -149 15 -146 5 3 6 -4 3 -15 -3 -11 -1 -20 5
-20 16 0 33 54 35 113 2 34 8 63 17 71 13 14 15 -8 14 -185 0 -177 2 -199 15
-194 9 4 28 9 43 12 15 3 29 12 33 21 4 11 2 12 -7 5 -7 -5 -24 -10 -38 -11
-14 -1 -20 2 -14 6 10 6 21 81 29 192 2 19 8 47 13 61 6 15 8 31 4 35 -4 5 1
2 11 -5 14 -12 17 -11 17 3 0 9 4 16 10 16 5 0 7 6 4 14 -3 8 2 31 11 50 10
20 18 48 19 64 1 15 7 36 14 47 10 17 13 18 22 5 8 -13 10 -12 10 5 1 35 50
79 50 44 0 -5 4 -8 9 -5 5 4 11 1 13 -6 6 -16 32 9 35 32 6 53 20 83 34 75 5
-4 12 1 15 9 3 9 11 16 16 16 6 0 8 -6 5 -14 -3 -8 5 -19 19 -26 l24 -13 2
-201 c0 -111 2 -205 3 -211 2 -5 4 -17 5 -25 5 -23 17 123 20 235 3 85 4 93
10 50 l7 -50 2 60 c2 89 8 106 35 95 14 -5 53 -1 107 10 46 10 106 22 134 27
l49 8 -69 45 c-39 25 -83 50 -99 56 -24 8 -27 12 -15 19 7 5 21 10 29 10 12 0
15 22 18 123 l3 122 -956 0 -956 0 3 -42z m1644 -52 c-19 -29 -55 -40 -63 -19
-5 13 -7 13 -15 -1 -5 -10 -22 -16 -41 -16 -37 1 -119 46 -96 54 7 3 61 18
119 34 l105 30 3 -30 c2 -16 -3 -40 -12 -52z m-231 -18 c19 -13 35 -27 35 -33
0 -5 -25 -11 -54 -13 -30 -1 -67 -7 -82 -12 -15 -6 -35 -8 -45 -5 -10 4 -24 3
-31 -1 -22 -14 -61 -13 -80 0 -26 19 -16 24 111 57 58 15 107 28 109 28 1 1
18 -9 37 -21z"/>
<path d="M4175 6913 c5 -10 11 -53 15 -95 9 -90 14 -102 39 -89 10 6 27 7 39
4 22 -5 22 -6 21 -292 -1 -157 -4 -299 -8 -316 -6 -27 -12 -30 -74 -44 -37 -8
-67 -18 -67 -22 0 -3 42 0 93 7 125 18 133 18 117 -1 -10 -12 -10 -15 4 -15
10 0 16 -9 16 -25 0 -14 -5 -25 -11 -25 -7 0 -9 -12 -5 -33 3 -18 9 -62 12
-98 7 -83 20 -132 43 -161 17 -20 27 -23 88 -21 l68 2 -47 -11 c-54 -11 -67
-33 -15 -25 17 3 91 13 162 22 72 9 140 18 153 21 l22 4 0 563 -1 562 -67 52
-67 53 -82 0 c-77 0 -83 -1 -83 -20 0 -12 11 -31 25 -44 26 -25 32 -50 14 -62
-6 -3 -8 -17 -5 -30 5 -19 2 -26 -18 -34 -13 -5 -27 -14 -31 -20 -9 -14 14
-42 27 -34 6 4 14 0 19 -7 13 -21 11 -79 -3 -79 -9 0 -9 -3 0 -12 7 -7 12 -20
12 -29 0 -25 -148 -408 -165 -427 -2 -2 -20 -8 -40 -12 -39 -9 -65 -4 -65 12
0 5 5 6 12 2 7 -4 8 -3 4 5 -14 22 -6 309 9 349 7 20 16 89 19 152 3 63 10
116 15 118 6 2 7 10 4 18 -3 8 -1 14 5 14 6 0 12 -5 14 -12 4 -12 28 -3 28 10
0 4 -17 18 -37 31 -20 12 -31 26 -26 30 15 9 24 46 17 65 -4 9 -17 16 -33 16
-16 0 -21 -3 -14 -8 10 -6 10 -14 1 -34 l-12 -25 -53 33 c-58 38 -100 46 -88
17z"/>
<path d="M60 5610 c0 -87 4 -140 10 -140 6 0 10 6 11 13 2 30 17 -44 18 -91 1
-46 -2 -55 -19 -59 -11 -3 -20 -9 -20 -13 0 -15 42 -18 73 -6 95 39 141 24
127 -41 -12 -52 3 -109 37 -145 28 -30 29 -30 108 -25 46 3 69 2 55 -3 l-25
-8 28 -1 c60 -2 232 30 269 51 61 35 48 60 -41 79 l-53 11 5 52 c8 83 19 100
72 114 26 7 54 20 63 28 11 11 26 14 51 10 21 -3 41 0 50 7 12 9 13 9 7 0 -5
-10 -1 -11 18 -3 14 5 33 7 41 4 11 -4 13 -2 10 9 -5 11 4 16 38 21 43 7 62
10 142 25 l40 8 -36 7 c-21 5 -66 2 -112 -7 -42 -8 -79 -12 -82 -9 -3 3 -5 20
-5 39 0 23 -5 33 -15 33 -11 0 -15 -11 -15 -39 0 -22 -4 -42 -8 -45 -5 -3 -40
-10 -78 -16 -38 -6 -77 -13 -86 -16 -16 -5 -18 3 -18 74 0 62 -3 81 -15 86
-12 4 -15 -7 -16 -64 -1 -39 -2 -76 -3 -82 -1 -16 -23 -26 -59 -27 -32 -1 -38
11 -62 125 -9 43 -17 79 -18 80 -1 1 -18 5 -37 8 -19 3 -62 12 -95 20 -66 16
-77 11 -69 -34 2 -14 -2 -47 -11 -75 l-14 -50 2 89 2 89 -60 14 c-33 8 -88 20
-122 28 -34 8 -67 15 -73 15 -6 0 -10 -49 -10 -140z m209 -241 c-7 -4 -33 -10
-58 -14 -25 -3 -54 -8 -63 -11 -16 -5 -18 2 -18 51 0 31 7 69 14 83 8 15 18
58 21 95 6 57 9 66 21 56 8 -6 14 -8 15 -3 2 23 18 -36 19 -71 l2 -40 9 49 c4
27 15 53 23 58 9 5 17 17 18 26 1 9 4 -48 5 -127 3 -104 0 -147 -8 -152z"/>
<path d="M830 4292 c-68 -8 -117 -53 -144 -130 -10 -28 -19 -37 -35 -36 -19 1
-21 -5 -21 -58 0 -58 0 -58 30 -58 27 0 30 -3 31 -32 1 -18 1 -39 0 -45 -1 -7
2 -13 7 -13 4 0 18 -18 30 -39 l22 -40 -25 -25 c-19 -19 -24 -32 -19 -50 5
-21 -1 -29 -35 -50 -26 -17 -42 -34 -43 -49 0 -12 -2 -26 -3 -32 -2 -5 -3 -16
-4 -22 -2 -21 -31 -15 -31 6 0 11 -6 22 -12 24 -8 4 -4 8 10 12 19 6 22 14 22
60 0 53 0 53 -35 59 -62 12 -75 2 -74 -57 1 -29 4 -40 6 -24 2 15 10 27 17 27
8 0 27 3 43 6 25 5 29 2 30 -18 1 -17 -11 -32 -44 -57 -43 -31 -49 -33 -103
-28 -37 4 -61 2 -68 -5 -7 -7 -12 -40 -12 -76 0 -54 -2 -63 -17 -61 -10 1 -33
1 -51 0 -30 -1 -32 -2 -18 -17 17 -17 22 -39 7 -30 -5 4 -11 1 -13 -6 -8 -24
-38 1 -38 32 0 27 -3 30 -31 30 -44 0 -71 17 -64 41 6 17 1 19 -34 19 -25 0
-41 5 -41 12 0 6 -3 9 -6 5 -4 -3 -3 -14 1 -24 13 -29 14 -43 4 -49 -12 -7
-12 -134 1 -134 5 0 7 -7 4 -15 -5 -11 -2 -13 10 -9 10 4 16 1 16 -7 0 -8 3
-23 6 -35 4 -17 1 -21 -18 -20 -22 1 -23 -1 -26 -101 l-2 -103 34 0 34 0 4
-67 c3 -49 0 -73 -11 -86 -13 -15 -12 -20 6 -40 12 -12 24 -37 28 -54 3 -18
11 -33 16 -33 5 0 9 -7 9 -15 0 -10 -11 -15 -32 -16 -31 0 -31 -1 15 -16 46
-15 55 -30 48 -75 0 -4 10 -3 24 2 15 6 26 6 30 0 4 -6 11 -5 19 3 8 6 12 15
9 20 -2 4 8 7 24 8 15 0 22 3 16 6 -7 2 -13 11 -13 19 0 8 -10 24 -22 36 -29
29 -58 86 -58 116 0 34 23 73 81 139 80 90 90 110 83 168 -5 43 -3 53 15 69
21 19 29 56 12 56 -5 0 -3 17 5 38 9 26 11 64 7 128 -5 87 -5 91 16 97 11 3
23 2 24 -1 2 -4 -4 -63 -14 -132 -24 -166 -24 -188 3 -211 11 -11 25 -19 30
-19 5 0 7 -13 3 -30 -4 -20 -3 -30 5 -30 6 0 9 4 6 9 -9 14 4 41 19 41 24 0
26 -17 9 -107 -28 -148 -28 -159 -4 -198 17 -28 28 -35 52 -35 29 0 30 -1 16
-17 -22 -26 -32 -84 -13 -77 22 9 41 -7 21 -18 -9 -5 -16 -16 -16 -23 0 -17
17 -20 22 -5 2 6 3 -38 3 -97 0 -103 10 -191 41 -366 15 -84 46 -158 95 -223
29 -39 42 -87 55 -199 2 -22 -6 -103 -19 -180 -22 -133 -25 -140 -48 -143 -39
-5 -67 -23 -72 -48 -2 -13 -1 -23 2 -22 3 1 19 -4 34 -10 16 -7 33 -12 40 -12
8 0 8 -3 0 -11 -8 -8 -19 -6 -41 5 -28 14 -42 13 -42 -5 0 -5 16 -11 35 -15
29 -5 35 -11 35 -31 0 -24 -2 -25 -40 -20 -22 3 -43 1 -46 -4 -3 -5 -10 -7
-15 -3 -15 9 -146 -26 -160 -42 -6 -8 -17 -14 -23 -14 -20 -1 -78 -58 -74 -72
3 -7 -8 -21 -24 -31 -16 -9 -26 -22 -23 -28 4 -5 2 -16 -4 -22 -10 -12 15 -49
76 -110 10 -10 18 -21 19 -25 0 -4 4 -16 8 -27 16 -41 15 -46 -11 -56 -32 -12
-68 -49 -75 -77 -4 -15 0 -22 18 -26 20 -5 23 -10 15 -24 -12 -22 -3 -37 26
-44 17 -5 20 -2 15 11 -5 13 -3 14 10 3 8 -7 22 -10 31 -6 8 3 24 1 35 -5 17
-9 19 -7 16 17 l-3 27 17 -22 c15 -18 26 -21 83 -19 37 1 73 6 80 13 8 6 33
14 57 18 24 4 39 11 36 17 -10 16 260 -2 291 -20 9 -4 46 -5 82 0 36 4 70 5
74 2 5 -3 9 -1 9 5 0 5 -8 15 -17 20 -16 9 -16 10 -1 11 9 0 18 -5 20 -11 5
-14 98 -20 98 -7 0 5 9 6 20 3 11 -4 20 -3 19 2 -4 20 2 33 15 33 8 0 19 14
25 31 16 46 14 58 -8 52 -33 -9 -71 25 -71 63 0 29 -3 34 -23 34 -13 0 -24 6
-25 13 -1 6 -4 28 -7 47 -3 19 -6 45 -8 58 -2 22 -15 31 -99 73 -10 5 -28 9
-40 9 -13 0 -32 7 -42 15 -22 17 -62 20 -71 5 -3 -5 -22 -1 -46 12 -44 23 -48
45 -11 64 12 6 30 18 39 26 10 9 56 29 102 45 47 16 87 35 89 41 3 9 -4 11
-21 6 -14 -3 -30 -3 -35 0 -18 11 0 45 29 55 35 12 38 42 9 71 -11 11 -20 31
-20 45 0 14 -6 28 -13 31 -7 2 -14 17 -15 31 -1 15 -7 32 -12 37 -6 6 -10 27
-10 48 0 22 -9 57 -20 79 -20 38 -21 51 -21 194 0 81 10 162 25 215 9 30 23
84 32 120 9 36 19 72 22 80 3 8 6 20 7 25 6 43 31 133 40 145 28 34 57 120 67
195 6 44 15 90 20 102 6 12 7 34 3 50 -12 42 -6 97 12 108 9 6 28 20 43 32 15
13 48 25 79 29 35 4 48 10 39 15 -8 5 12 9 50 9 35 0 62 -4 62 -10 0 -6 29
-10 66 -10 36 0 97 -5 135 -12 48 -7 73 -8 77 -1 8 12 133 23 179 16 20 -3 35
-12 39 -25 6 -21 25 -20 32 2 3 7 0 10 -6 6 -6 -3 -13 -2 -17 4 -3 5 2 10 13
10 14 0 19 7 19 30 0 17 -3 30 -6 31 -3 0 -21 2 -39 3 -115 12 -165 19 -154
23 10 4 10 8 1 19 -7 9 -9 33 -4 71 l6 58 97 0 97 0 6 215 c4 118 5 217 3 219
-2 2 -59 6 -128 9 l-123 5 7 31 c4 18 15 44 24 58 13 20 14 28 5 34 -8 4 -9 3
-5 -4 4 -7 1 -12 -9 -12 -26 0 -56 -20 -49 -32 4 -6 8 -25 10 -42 l2 -31 -25
29 c-16 19 -23 36 -19 50 3 12 6 76 6 144 l0 122 255 0 255 0 0 -75 c0 -43 4
-75 10 -75 6 0 10 35 10 85 l0 85 -270 0 -270 0 0 -35 c0 -19 -6 -38 -14 -42
-8 -4 -16 -19 -18 -33 -4 -30 -25 -40 -57 -28 -36 13 -89 -8 -112 -46 -21 -35
-26 -106 -7 -106 7 0 3 -6 -8 -14 -11 -8 -29 -33 -39 -55 -19 -44 -19 -44 -82
-41 l-43 2 0 -56 c0 -56 0 -56 -30 -56 -23 0 -35 7 -49 31 -11 18 -17 38 -14
46 3 7 -7 41 -22 74 -15 33 -24 63 -20 67 3 4 22 5 41 3 26 -2 34 1 34 13 0
12 -11 16 -45 16 -26 0 -63 9 -85 20 -27 14 -48 18 -71 13 -23 -4 -30 -3 -25
5 4 7 20 12 37 12 32 0 34 7 18 62 -11 41 -47 60 -73 39 -14 -12 -27 -91 -15
-91 8 0 21 -31 15 -37 -4 -4 -29 -10 -48 -12 -5 -1 -8 -8 -8 -17 0 -12 3 -14
13 -6 10 8 23 5 52 -12 28 -17 50 -23 79 -20 32 2 35 2 13 -4 l-28 -7 45 -44
c25 -24 43 -48 40 -53 -3 -4 3 -5 12 -1 10 4 15 2 11 -3 -3 -6 3 -23 14 -40
25 -39 24 -56 -3 -24 l-21 25 7 -30 c42 -210 29 -409 -32 -494 -67 -92 -95
-117 -132 -116 -19 1 -44 5 -55 9 -14 6 -16 5 -6 -2 10 -7 3 -17 -33 -42 -52
-35 -70 -34 -88 6 -11 24 -9 28 22 54 42 34 74 44 99 31 15 -8 26 -3 60 29 22
22 41 43 41 47 0 4 14 20 32 34 28 23 30 29 19 43 -11 13 -11 22 -1 46 9 23
11 70 5 188 -4 86 -10 176 -14 199 l-6 41 -38 -18 -37 -18 21 30 22 30 -24
-13 c-13 -7 -28 -13 -32 -14 -4 0 -12 -7 -17 -15 -8 -13 -10 -12 -10 3 0 19
-20 23 -37 6 -9 -9 -14 -4 -20 20 l-8 31 -29 -25 c-16 -14 -33 -25 -37 -25 -4
0 -31 -20 -60 -45 -72 -62 -82 -57 -20 11 28 30 51 60 51 64 0 5 21 18 46 29
26 12 43 25 39 31 -4 6 3 26 14 45 16 28 17 35 6 35 -19 0 -19 4 1 42 12 24
13 32 4 38 -7 5 -10 17 -7 29 8 31 -10 157 -28 191 -8 16 -26 37 -38 45 -27
17 -100 32 -137 27z m-66 -621 c-18 -30 -40 -84 -50 -120 -10 -36 -19 -68 -21
-71 -10 -12 -23 31 -23 80 0 32 -7 63 -15 74 -19 25 -4 52 38 70 18 7 46 28
62 45 l30 32 5 -28 c4 -20 -3 -43 -26 -82z m772 -28 c18 -24 17 -43 0 -43 -8
0 -17 -4 -20 -9 -4 -5 3 -7 14 -4 14 4 20 0 20 -11 0 -10 -9 -16 -25 -16 -30
0 -33 -20 -5 -27 14 -4 20 -14 20 -34 0 -15 4 -39 10 -53 7 -19 5 -33 -8 -56
-30 -53 -44 -30 -37 64 l4 59 -58 -6 c-66 -6 -77 -1 -75 31 2 30 13 40 25 22
8 -11 12 -12 16 -2 8 20 43 14 43 -8 0 -12 7 -20 16 -20 13 0 14 3 5 13 -13
16 -8 44 13 86 19 36 24 37 42 14z"/>
<path d="M4205 4206 c-8 -11 -53 -15 -194 -20 -133 -4 -187 -9 -193 -18 -4 -7
-8 -55 -8 -107 0 -87 -22 -191 -41 -191 -4 0 -12 14 -19 30 -11 27 -17 30 -55
30 -26 0 -47 -6 -55 -16 -12 -14 -27 -72 -34 -133 -1 -13 -11 -28 -20 -33 -16
-9 -16 -11 3 -25 29 -20 26 -39 -6 -46 -44 -9 -75 -44 -69 -75 9 -41 11 -160
3 -168 -15 -15 -37 68 -37 141 l0 75 -30 0 c-16 0 -30 -4 -30 -10 0 -5 9 -10
20 -10 18 0 20 -7 20 -71 0 -67 -1 -70 -22 -67 -18 2 -24 -3 -29 -27 -4 -16
-7 -22 -8 -13 0 10 -15 25 -32 34 -25 12 -30 21 -26 40 2 13 0 24 -4 24 -5 0
-9 7 -9 15 0 8 8 15 19 15 37 0 44 24 37 128 -5 80 -27 199 -38 207 -21 15
-182 85 -195 85 -10 0 -31 -7 -48 -15 l-30 -15 24 20 c15 13 38 20 63 20 l39
0 -7 48 c-8 57 -18 72 -45 65 -12 -4 -25 1 -32 11 -12 16 -14 16 -37 -2 -19
-15 -25 -32 -30 -81 -4 -45 -2 -65 7 -73 20 -17 16 -24 -31 -48 l-43 -24 -29
24 -29 23 36 -6 c20 -3 42 -1 50 4 9 6 -11 9 -57 9 -57 0 -77 -4 -97 -20 -34
-27 -38 -59 -10 -93 13 -16 23 -37 23 -48 0 -10 4 -19 9 -19 5 0 5 -15 -1 -35
-12 -36 -30 -39 -23 -3 3 11 0 28 -5 37 -6 10 -10 11 -10 4 0 -7 -7 -13 -15
-13 -9 0 -20 -10 -25 -22 l-9 -23 0 23 c-1 12 -6 22 -12 22 -8 0 -10 -18 -7
-54 3 -30 2 -55 -1 -54 -23 2 -32 -4 -27 -18 3 -8 2 -12 -4 -9 -6 3 -10 0 -10
-7 0 -20 30 -59 40 -53 5 3 11 1 14 -4 3 -5 25 -6 49 -4 42 5 45 4 58 -26 20
-46 30 -38 12 9 -18 46 -10 65 13 32 10 -14 26 -22 46 -22 23 0 29 -4 24 -15
-3 -9 -9 -51 -12 -94 -6 -70 0 -120 23 -203 4 -16 -3 -18 -54 -18 l-58 0 7
102 c7 111 0 135 -33 117 -17 -9 -19 -6 -19 35 0 40 -2 44 -21 39 -15 -4 -22
0 -26 16 -4 14 -13 21 -30 21 -17 0 -30 11 -46 37 -16 28 -23 33 -25 20 -2 -9
-9 -17 -15 -17 -8 0 -7 -4 1 -12 7 -7 12 -15 12 -18 0 -10 -98 -12 -113 -3 -6
4 -18 8 -25 9 -10 2 -10 -1 -1 -12 6 -7 15 -11 20 -8 5 3 9 -4 9 -15 0 -11 -9
-25 -21 -32 -16 -8 -20 -17 -16 -38 5 -23 1 -29 -24 -38 -16 -6 -29 -16 -29
-22 0 -7 10 -5 25 5 33 21 40 13 26 -27 -6 -18 -11 -44 -11 -59 0 -39 -12 -45
-26 -13 -12 26 -12 25 -6 -17 12 -76 8 -383 -4 -387 -7 -2 -13 17 -16 52 -6
71 -15 81 -62 65 -32 -10 -36 -15 -36 -45 0 -45 -20 -56 -22 -13 0 18 -1 40 0
49 1 13 -5 14 -45 5 l-47 -11 40 -6 c37 -5 36 -5 -18 -10 -41 -3 -59 0 -63 9
-2 6 -10 12 -16 12 -7 0 -2 -11 11 -25 13 -14 33 -25 44 -25 21 -1 21 -1 1
-12 -11 -6 -22 -15 -25 -18 -3 -4 -25 -10 -50 -14 -25 -3 -54 -8 -66 -9 -11
-2 -25 -6 -31 -10 -6 -4 -13 -3 -15 3 -2 7 -20 7 -53 1 -32 -6 -51 -6 -53 0
-3 6 -10 5 -18 -2 -8 -6 -14 -8 -14 -5 0 4 -10 1 -22 -5 -13 -7 -45 -12 -73
-11 -57 1 26 -13 245 -42 169 -22 193 -26 187 -32 -3 -3 -124 11 -270 30 -306
42 -294 41 -294 21 0 -11 4 -12 11 -5 17 17 23 12 22 -17 -1 -26 2 -28 37 -28
21 0 41 -6 46 -14 5 -8 16 -11 24 -8 9 3 18 -1 22 -11 4 -12 8 -13 14 -4 10
16 101 23 101 8 0 -8 3 -7 8 1 4 6 23 10 42 9 19 -2 42 0 51 5 11 5 16 3 16
-7 0 -8 -6 -13 -14 -10 -15 6 -18 -10 -4 -19 6 -3 19 4 30 16 12 13 24 18 32
13 9 -5 8 -9 -7 -15 -13 -5 -5 -8 26 -8 42 0 44 1 26 14 -19 14 -19 15 8 15
15 0 25 -4 22 -8 -3 -5 1 -9 9 -9 8 0 15 4 15 9 0 5 5 6 10 3 6 -4 8 -10 6
-14 -3 -4 4 -8 15 -8 13 -1 17 2 12 10 -4 7 5 4 20 -6 30 -19 50 -15 40 8 -3
8 -16 15 -29 15 -13 0 -24 4 -24 8 0 5 60 1 133 -9 159 -22 181 -23 171 -7 -4
7 -3 8 5 4 6 -4 9 -11 6 -15 -2 -5 14 -11 38 -14 23 -3 44 -2 45 4 2 5 14 9
27 9 13 0 27 5 30 11 5 7 14 4 26 -7 17 -16 19 -16 19 -1 0 12 9 17 28 17 19
0 23 -3 13 -9 -7 -5 -9 -11 -4 -14 5 -3 15 -2 23 4 8 5 29 9 45 9 20 0 26 3
17 9 -11 7 -11 9 2 14 9 4 16 3 16 -1 0 -5 16 -6 34 -4 30 4 35 1 33 -16 0
-11 -4 -19 -7 -17 -3 2 -12 -1 -20 -6 -10 -7 0 -8 33 -4 44 5 48 4 57 -20 14
-38 13 -41 -23 -58 -29 -14 -41 -14 -117 -1 -47 9 -110 13 -140 11 -69 -6
-174 -33 -178 -47 -2 -5 -12 -10 -22 -10 -28 0 -33 -18 -8 -26 35 -11 414 -20
519 -12 201 15 219 20 200 56 -6 11 -11 32 -11 47 0 15 -4 24 -10 20 -5 -3
-18 -1 -27 5 -16 10 -16 10 3 5 14 -4 26 2 38 17 15 21 25 23 89 21 40 0 85
-6 100 -12 37 -14 38 -14 30 7 -6 15 -4 15 15 -2 17 -14 22 -16 22 -5 0 10 2
11 8 2 5 -7 28 -10 65 -8 31 2 59 -1 63 -6 3 -5 10 -9 15 -9 6 0 7 5 4 10 -3
6 -1 10 5 10 11 0 30 -41 30 -66 0 -8 -5 -12 -10 -9 -13 8 -70 -4 -70 -15 0
-25 424 -88 495 -74 25 5 46 14 46 19 0 6 -20 14 -45 19 -25 5 -46 13 -46 18
0 5 -12 13 -26 19 -15 5 -24 12 -22 15 9 8 133 -15 136 -26 2 -5 34 -10 72
-10 43 0 74 -5 82 -13 7 -7 21 -16 31 -20 9 -3 17 -16 17 -27 0 -15 7 -20 25
-20 16 0 25 6 25 15 0 17 29 19 80 5 55 -15 240 -31 277 -24 l33 6 0 164 0
164 -27 0 c-16 0 -45 3 -65 6 l-38 7 0 81 c0 125 1 125 71 119 l59 -6 0 287 0
286 -35 0 c-24 0 -35 5 -35 14 0 8 -9 18 -20 21 -13 4 -20 15 -20 31 0 13 -4
24 -9 24 -5 0 -17 7 -25 16 -17 16 -16 42 4 85 20 43 -4 82 -59 94 l-44 9 6
114 5 113 -176 -1 c-119 -1 -178 2 -180 9 -5 16 -35 14 -47 -3z m375 -88 c0
-93 -9 -136 -31 -141 -10 -3 -20 1 -23 9 -6 16 -63 19 -86 4 -13 -9 -13 -11 0
-20 12 -8 11 -10 -7 -10 -13 0 -23 5 -23 10 0 13 -32 9 -42 -4 -4 -6 -2 -18 4
-29 9 -17 7 -18 -22 -12 -23 5 -35 3 -41 -6 -7 -12 -14 -11 -40 4 -17 9 -42
17 -55 17 -19 0 -24 -5 -24 -25 0 -23 4 -25 43 -25 23 0 49 -6 59 -13 13 -11
5 -12 -47 -9 -62 4 -64 3 -70 -21 -14 -53 -5 -62 61 -62 56 0 60 -1 50 -18 -8
-14 -8 -20 4 -27 10 -7 -17 -10 -82 -10 l-97 0 -16 30 c-14 28 -19 30 -50 24
-20 -4 -35 -2 -35 3 0 6 -15 15 -32 21 l-33 10 28 1 c16 1 38 -4 49 -10 30
-16 53 15 61 83 6 45 4 56 -14 73 -15 14 -23 16 -26 7 -3 -6 -9 -9 -15 -6 -5
4 -31 8 -56 10 -31 2 -41 0 -32 -7 13 -7 12 -9 -2 -9 -14 0 -18 -11 -20 -57
-2 -44 -7 -58 -18 -58 -8 0 -19 -10 -25 -22 -5 -12 -22 -25 -37 -28 -15 -4
-38 -15 -52 -26 -14 -11 -31 -16 -42 -12 -16 6 -16 7 1 19 9 7 21 28 25 46 l7
33 11 -27 c6 -16 18 -28 25 -28 11 0 15 37 21 177 3 97 8 178 9 180 3 3 439
17 660 21 l77 2 0 -62z m50 -326 c0 -4 14 -13 30 -20 18 -8 30 -21 30 -33 0
-10 6 -19 13 -19 8 0 7 -4 -3 -10 -13 -9 -8 -14 12 -12 3 1 9 -5 12 -13 6 -16
-18 -16 -41 -2 -7 5 -13 4 -13 -2 0 -11 -40 -8 -61 4 -12 7 -12 6 -1 -7 10
-13 10 -17 -3 -22 -8 -3 -15 -15 -15 -26 0 -11 -7 -20 -15 -20 -8 0 -15 4 -15
9 0 5 -14 9 -31 9 -24 -1 -27 -3 -15 -10 9 -5 21 -6 28 -2 6 4 8 3 5 -3 -4 -6
-27 -16 -52 -22 -25 -6 -43 -16 -40 -21 3 -5 12 -7 19 -4 8 3 17 0 22 -7 4 -7
3 -10 -3 -6 -6 4 -13 0 -17 -8 -3 -8 -17 -15 -31 -15 -17 0 -24 -4 -19 -12 4
-7 3 -8 -4 -4 -6 4 -21 2 -33 -5 -17 -8 -20 -8 -14 1 4 7 2 16 -5 20 -21 13
-1 30 35 30 31 0 36 4 59 54 14 30 26 59 26 65 0 5 11 23 25 39 13 16 22 32
19 35 -3 3 8 13 25 22 17 8 31 12 31 8 0 -4 5 -2 12 5 14 14 28 16 28 4z
m-261 -337 c1 16 3 17 10 6 8 -12 12 -12 25 -2 13 11 17 10 22 -5 3 -11 10
-29 15 -42 17 -43 8 -57 -12 -19 -11 20 -22 37 -24 37 -3 0 2 -17 11 -37 9
-21 21 -52 27 -70 5 -17 19 -36 31 -41 18 -9 16 -11 -16 -11 l-38 -1 0 -69 c0
-38 -3 -76 -6 -85 -8 -20 -24 -21 -24 -1 0 8 -7 15 -15 15 -12 0 -15 14 -15
70 0 66 -1 71 -26 80 -14 6 -23 14 -19 20 3 5 12 7 20 3 8 -3 15 0 15 6 0 6
-7 11 -15 11 -11 0 -15 11 -14 43 l2 42 7 -40 c5 -30 8 -16 10 60 l2 100 13
-45 c7 -25 14 -36 14 -25z m-924 -123 c6 -62 22 -133 24 -104 1 7 16 12 40 12
l40 0 7 -57 c8 -63 -10 -133 -35 -141 -10 -3 -12 0 -8 12 4 9 0 31 -8 49 -7
17 -17 41 -20 52 -4 11 -9 15 -12 9 -2 -7 -13 -10 -24 -7 -17 5 -19 11 -13 52
3 28 1 58 -7 76 -17 40 -19 152 -2 129 6 -9 15 -46 18 -82z m835 -179 l62 -6
-8 -41 c-4 -23 -8 -71 -7 -108 0 -79 -3 -82 -90 -72 -39 5 -65 13 -76 25 -8
11 -30 22 -49 25 -26 5 -32 10 -26 23 4 9 9 34 11 56 10 108 8 105 67 105 29
0 81 -3 116 -7z m134 -145 c3 -29 6 -74 6 -100 0 -34 5 -50 18 -57 9 -6 11
-11 5 -11 -9 0 -13 -18 -13 -57 0 -41 3 -54 10 -43 8 13 10 13 10 -2 0 -9 -4
-20 -10 -23 -18 -11 -10 -45 13 -55 17 -7 18 -9 5 -9 -10 -1 -18 -8 -18 -16 0
-8 -9 -15 -20 -15 -11 0 -20 7 -20 15 0 8 -9 15 -20 15 -11 0 -20 5 -20 11 0
7 9 9 21 6 20 -5 20 -3 14 131 -3 75 -8 165 -11 200 -5 50 -3 62 9 62 10 0 16
-16 21 -52z"/>
<path d="M213 4072 c-12 -2 -27 -10 -33 -18 -7 -8 -20 -14 -29 -14 -9 0 -21
-4 -27 -9 -5 -5 -20 -11 -34 -13 -22 -3 -25 -8 -28 -50 -3 -47 -3 -48 27 -48
16 0 33 -4 36 -10 9 -15 25 -12 25 5 0 26 13 17 73 -50 62 -69 80 -77 97 -45
8 15 8 20 -2 18 -6 -2 -13 2 -13 7 -1 6 -5 21 -9 35 -4 16 -1 36 8 55 41 77
-8 150 -91 137z"/>
<path d="M2657 4040 c-13 -11 -28 -31 -31 -45 -4 -14 -11 -25 -16 -25 -6 0
-10 -5 -10 -11 0 -5 4 -8 10 -4 5 3 16 -8 25 -25 18 -34 21 -36 41 -15 10 9
25 12 44 8 26 -5 30 -2 30 15 0 18 7 21 58 25 l57 3 -57 2 c-54 2 -57 3 -63
32 -6 26 -37 60 -56 60 -3 0 -18 -9 -32 -20z"/>
<path d="M2180 3798 l0 -78 60 0 c57 0 60 1 60 25 0 14 -5 25 -11 25 -6 0 -9
7 -5 15 4 10 -1 15 -14 15 -25 0 -26 26 -2 32 9 2 77 3 150 2 105 -2 136 1
147 13 32 32 16 34 -185 31 l-200 -3 0 -77z"/>
<path d="M2210 3226 c0 -7 -10 -21 -22 -30 l-23 -17 23 11 c17 9 22 8 22 -4 0
-8 -10 -16 -21 -18 -25 -3 -41 -38 -28 -59 8 -12 10 -12 18 0 10 16 26 -3 16
-20 -5 -7 4 -9 25 -5 36 5 53 16 25 16 -13 0 -16 3 -9 10 7 7 19 7 35 1 14 -6
18 -10 9 -11 -8 -1 -4 -5 10 -9 20 -6 11 -10 -47 -21 -72 -13 -88 -22 -58 -34
8 -3 15 -1 15 3 0 11 94 26 138 22 l33 -3 -3 44 c-3 37 -6 43 -25 43 -12 0
-25 4 -28 7 -4 4 -13 4 -20 2 -7 -3 -16 -1 -20 5 -3 6 -15 11 -25 11 -13 0
-19 6 -18 18 2 32 -2 52 -12 52 -5 0 -10 -6 -10 -14z"/>
<path d="M3179 271 c15 -10 8 -15 -32 -25 -25 -6 -26 -9 -16 -28 11 -21 12
-21 25 -4 14 19 51 15 39 -5 -4 -6 2 -13 14 -16 28 -7 27 -20 -4 -25 -13 -3
-22 -2 -20 3 3 4 2 14 -1 23 -5 13 -9 14 -21 5 -11 -10 -11 -14 -1 -20 7 -4 9
-12 4 -16 -4 -4 -14 0 -21 11 -13 17 -15 17 -31 1 -15 -14 -15 -18 -3 -26 13
-8 36 -13 52 -10 4 1 17 -8 30 -19 26 -25 53 -22 49 5 -2 11 -9 23 -15 27 -8
5 -4 8 8 8 25 0 45 -18 45 -39 0 -14 -1 -14 -10 -1 -8 13 -10 13 -10 -1 0 -11
10 -16 33 -17 26 -1 29 1 15 9 -10 6 -18 17 -18 25 0 8 -7 17 -15 20 -8 4 -13
10 -10 14 3 5 1 11 -5 15 -7 4 -3 17 9 34 l20 28 -34 -3 c-26 -2 -38 3 -45 17
-6 10 -18 19 -28 19 -13 0 -14 -2 -3 -9z"/>
</g>
</svg>
